<?xml version="1.0" standalone="no"?>
<!DOCTYPE svg PUBLIC "-//W3C//DTD SVG 20010904//EN"
 "http://www.w3.org/TR/2001/REC-SVG-20010904/DTD/svg10.dtd">
<svg version="1.0" xmlns="http://www.w3.org/2000/svg"
 width="512.000000pt" height="512.000000pt" viewBox="0 0 512.000000 512.000000"
 preserveAspectRatio="xMidYMid meet">

<g transform="translate(0.000000,512.000000) scale(0.100000,-0.100000)"
fill="#000000" stroke="none">
<path d="M1096 4037 c-54 -33 -89 -85 -104 -155 -17 -77 -17 -2567 0 -2644 16
-72 51 -124 106 -155 32 -19 2892 -19 2924 0 55 31 90 83 106 155 17 77 17
2567 0 2644 -16 72 -51 124 -106 156 -31 17 -2897 17 -2926 -1z m2115 -156
c35 -35 39 -44 39 -90 0 -73 -18 -104 -77 -135 -40 -20 -60 -19 -98 3 -68 40
-93 122 -59 194 21 44 59 66 113 67 37 0 49 -5 82 -39z m330 22 c37 -22 59
-69 59 -128 0 -42 -5 -52 -38 -86 -45 -44 -81 -56 -122 -39 -65 27 -90 66 -90
141 0 46 4 55 39 90 33 33 45 39 81 39 23 0 55 -8 71 -17z m357 -9 c113 -94
11 -295 -120 -240 -44 19 -88 81 -88 125 0 113 126 183 208 115z m47 -1504 l0
-1115 -1385 0 -1385 0 -3 1105 c-1 608 0 1111 3 1118 3 10 286 12 1387 10
l1383 -3 0 -1115z"/>
<path d="M2633 3002 c-14 -9 -32 -52 -43 -102 -5 -19 -13 -60 -20 -90 -7 -30
-16 -71 -20 -90 -31 -135 -70 -312 -89 -402 -5 -24 -17 -74 -26 -113 -31 -131
-37 -160 -42 -219 -6 -67 1 -76 60 -76 35 0 39 3 57 43 11 23 20 56 20 74 0
17 5 35 10 38 6 3 10 24 10 45 0 21 5 42 10 45 6 3 10 16 10 29 0 13 11 70 25
127 13 57 29 127 35 154 6 28 15 68 20 90 5 22 17 74 26 115 9 41 20 88 25
104 5 16 9 42 9 57 0 15 5 31 10 34 17 10 12 111 -6 129 -16 17 -61 21 -81 8z"/>
<path d="M2180 2803 c-89 -43 -181 -86 -325 -153 -33 -15 -100 -46 -148 -69
l-88 -41 3 -87 3 -88 71 -35 c39 -19 104 -50 145 -69 143 -66 364 -172 402
-191 22 -11 43 -20 48 -20 5 0 9 45 9 99 l0 99 -40 16 c-21 8 -58 24 -82 35
-24 10 -112 48 -196 83 -177 75 -176 71 -22 133 52 20 113 45 135 55 22 9 72
30 110 45 39 16 76 33 83 38 15 12 13 189 -3 193 -5 2 -53 -18 -105 -43z"/>
<path d="M2826 2843 c-12 -12 -7 -180 7 -190 6 -5 44 -22 82 -38 39 -15 88
-36 110 -46 22 -9 72 -29 110 -45 39 -15 74 -31 80 -36 5 -4 16 -8 25 -8 9 0
25 -9 34 -19 17 -18 16 -20 -6 -26 -13 -4 -43 -17 -68 -27 -25 -11 -60 -27
-77 -35 -34 -14 -226 -96 -275 -116 -28 -11 -28 -12 -28 -109 0 -54 4 -98 9
-98 5 0 26 9 48 20 21 11 97 47 168 80 225 105 306 144 379 180 l71 35 3 87 3
87 -33 15 c-18 7 -73 33 -123 56 -49 23 -128 60 -175 82 -47 21 -119 55 -160
74 -77 37 -160 76 -171 81 -3 1 -9 0 -13 -4z"/>
</g>
</svg>
