<?xml version="1.0" standalone="no"?>
<!DOCTYPE svg PUBLIC "-//W3C//DTD SVG 20010904//EN"
 "http://www.w3.org/TR/2001/REC-SVG-20010904/DTD/svg10.dtd">
<svg version="1.0" xmlns="http://www.w3.org/2000/svg"
 width="1080.000000pt" height="1080.000000pt" viewBox="0 0 1080.000000 1080.000000"
 preserveAspectRatio="xMidYMid meet">

<g transform="translate(0.000000,1080.000000) scale(0.100000,-0.100000)"
fill="#000000" stroke="none">
<path d="M4722 6410 l-672 -1010 338 0 339 0 655 983 c360 540 663 994 672
1010 l18 27 -338 0 -339 -1 -673 -1009z"/>
<path d="M3036 5904 l-338 -506 336 -504 336 -504 340 0 340 0 -337 505 -336
505 336 505 337 505 -338 0 -339 0 -337 -506z"/>
<path d="M7087 5905 l336 -505 -336 -505 -337 -505 340 0 340 0 336 504 336
504 -338 506 -337 506 -339 0 -338 0 337 -505z"/>
<path d="M5418 4418 c-360 -541 -663 -995 -672 -1010 l-18 -28 339 0 340 0
655 983 c360 540 663 994 672 1010 l18 27 -339 0 -340 0 -655 -982z"/>
</g>
</svg>
